<?xml version="1.0" standalone="no"?>
<!DOCTYPE svg PUBLIC "-//W3C//DTD SVG 20010904//EN"
 "http://www.w3.org/TR/2001/REC-SVG-20010904/DTD/svg10.dtd">
<svg version="1.0" xmlns="http://www.w3.org/2000/svg"
 width="497.000000pt" height="497.000000pt" viewBox="0 0 497.000000 497.000000"
 preserveAspectRatio="xMidYMid meet">

<g transform="translate(0.000000,497.000000) scale(0.100000,-0.100000)"
fill="#000000" stroke="none">
<path d="M0 4170 l0 -800 103 0 c91 0 104 -2 115 -20 21 -35 41 -104 33 -115
-5 -5 -11 -48 -14 -95 -4 -47 -9 -107 -13 -135 -6 -49 -5 -50 34 -82 23 -18
48 -33 56 -33 9 0 16 -4 16 -8 0 -20 249 -242 271 -242 4 0 19 -10 33 -22 14
-13 42 -34 63 -48 20 -14 53 -41 72 -61 20 -20 50 -44 66 -52 40 -22 70 -48
84 -74 7 -14 32 -29 66 -39 32 -10 52 -21 46 -27 -4 -4 -44 -11 -87 -13 -95
-6 -164 -25 -264 -73 -150 -72 -346 -309 -430 -521 -8 -19 -24 -51 -36 -70
-12 -19 -29 -57 -37 -85 -8 -27 -23 -77 -32 -109 -10 -33 -24 -71 -31 -85 -8
-14 -14 -31 -14 -38 0 -7 -22 -36 -50 -65 l-49 -53 -1 -602 0 -603 243 0 243
0 32 68 c38 80 64 126 75 130 4 2 7 14 7 27 0 12 7 25 15 29 8 3 15 12 15 20
0 7 25 40 55 72 30 33 55 64 55 70 0 6 9 19 20 29 11 10 20 24 20 30 0 7 7 19
16 26 9 7 26 37 39 65 13 29 32 57 44 63 12 7 18 17 14 27 -3 8 3 24 12 34 10
11 15 23 12 26 -9 9 -57 -24 -64 -44 -7 -20 -83 -102 -95 -102 -11 0 -10 27 2
48 5 9 15 28 20 42 29 67 62 106 160 183 79 62 140 123 141 140 0 6 14 35 30
62 16 28 38 68 49 90 18 36 30 57 52 89 19 28 102 132 112 141 6 6 26 33 45
60 39 59 38 76 -9 189 -30 71 -35 77 -56 72 -20 -5 -26 -1 -38 28 -9 22 -12
45 -7 63 l8 28 7 -37 c4 -24 13 -38 22 -38 13 0 12 3 -1 23 -14 22 -14 26 4
46 19 22 19 22 -7 49 -26 26 -57 30 -76 12 -10 -10 -9 -138 1 -177 4 -16 0
-25 -13 -29 -11 -4 -29 -18 -41 -33 -39 -45 -49 -17 -61 159 -11 159 -10 175
10 295 10 61 17 75 51 107 21 21 55 41 75 46 20 5 96 23 168 41 72 17 154 34
183 38 47 5 51 4 51 -15 0 -15 -10 -24 -36 -32 -30 -10 -95 -48 -113 -66 -2
-2 4 -13 14 -24 14 -16 15 -22 5 -35 -11 -13 -15 -13 -41 0 -27 15 -29 14 -52
-18 -42 -57 -42 -57 6 -51 53 8 69 -8 38 -37 -12 -11 -21 -31 -21 -44 0 -38
-18 -39 -26 -1 -7 43 -31 67 -40 42 -11 -28 6 -88 26 -93 22 -6 45 -56 36 -79
-6 -16 -8 -16 -24 0 -10 9 -23 16 -28 16 -42 -2 -69 -94 -31 -104 28 -7 47 4
58 30 12 34 26 30 33 -11 8 -40 12 -42 34 -15 24 27 70 37 77 16 15 -48 18
-52 22 -28 5 27 47 57 69 48 12 -4 14 -13 9 -29 -21 -69 -39 -183 -39 -257 -1
-79 0 -85 19 -83 11 2 81 -8 155 -21 l135 -23 65 30 c36 17 70 36 75 43 21 26
89 64 114 64 l26 0 -30 -16 c-63 -33 -195 -143 -195 -162 0 -7 -11 -28 -26
-47 -18 -24 -38 -36 -72 -44 -64 -15 -185 -32 -252 -36 -30 -2 -80 -12 -110
-23 -30 -11 -80 -26 -110 -32 -30 -7 -68 -19 -85 -28 -49 -24 -275 -260 -275
-286 0 -4 -11 -17 -23 -29 -13 -12 -29 -34 -35 -48 -10 -25 -8 -27 47 -54 47
-22 62 -25 79 -16 11 6 32 11 46 11 14 0 28 5 31 11 4 5 17 9 30 7 24 -3 73
19 90 39 11 15 49 18 83 8 13 -4 22 -3 22 3 0 6 21 23 48 38 42 24 71 48 133
106 30 29 77 49 85 37 7 -13 -65 -85 -156 -154 -182 -138 -511 -403 -615 -494
-44 -39 -114 -99 -155 -133 -41 -35 -95 -82 -119 -105 -25 -23 -57 -47 -73
-54 -15 -6 -28 -15 -28 -20 0 -5 950 -9 2217 -9 l2216 0 -6 761 c-3 419 -8
763 -10 766 -3 2 -8 -32 -12 -76 -4 -45 -11 -81 -16 -81 -5 0 -9 54 -9 120 0
72 4 120 10 120 5 0 12 -12 16 -27 3 -16 7 -32 9 -38 5 -16 10 1515 5 1598 0
5 -8 6 -19 2 -30 -9 -46 19 -31 56 14 34 9 321 -7 326 -4 2 -7 28 -6 58 1 30
-2 57 -7 60 -6 4 -10 -3 -10 -14 0 -12 -4 -21 -10 -21 -5 0 -10 18 -10 40 0
33 -3 40 -20 40 -18 0 -20 7 -20 80 l0 80 36 0 36 0 -5 -82 c-5 -63 -1 -50 13
55 19 139 18 191 -6 380 l-6 47 -44 0 -44 0 0 40 c0 22 -4 40 -10 40 -5 0 -10
-18 -10 -39 0 -30 -7 -46 -30 -69 -29 -29 -30 -34 -30 -121 0 -54 4 -91 10
-91 6 0 10 -18 10 -40 0 -22 5 -40 10 -40 6 0 10 -40 10 -100 0 -93 -1 -100
-20 -100 -13 0 -20 -7 -20 -20 0 -17 -7 -20 -40 -20 l-40 0 0 -40 c0 -40 0
-40 -38 -40 -21 0 -43 -5 -50 -12 -9 -9 -12 -5 -12 19 0 18 4 35 10 38 6 3 10
13 10 21 0 10 -12 14 -39 14 l-39 0 -4 -47 c-3 -27 -1 -52 4 -57 13 -15 9 -50
-8 -74 -24 -34 -34 -17 -34 56 0 77 37 202 59 202 11 0 11 4 -2 18 -10 10 -17
28 -17 40 0 12 -4 22 -10 22 -17 0 -11 67 10 122 21 56 25 88 12 88 -30 0 -36
205 -12 390 5 41 12 140 15 220 3 80 8 180 11 223 l5 77 -29 0 -29 0 -7 -122
c-4 -68 -11 -136 -16 -153 -5 -16 -11 -95 -14 -175 -10 -253 -16 -363 -26
-435 -6 -38 -12 -134 -13 -212 -2 -89 -8 -147 -15 -156 -6 -7 -14 -58 -16
-113 -3 -55 -7 -111 -11 -126 -4 -14 -2 -36 5 -47 24 -46 -12 -77 -61 -50 -11
5 -39 13 -62 17 -35 6 -43 13 -51 37 -14 41 -13 41 -35 14 -18 -23 -20 -23
-27 -5 -5 13 -2 23 9 31 17 13 23 35 9 35 -7 0 -15 62 -14 119 0 17 -3 20 -11
12 -19 -19 -23 -12 -24 41 -1 28 -7 54 -13 58 -6 4 -8 18 -5 32 4 16 1 29 -9
37 -13 11 -16 11 -17 0 0 -8 -4 -4 -9 8 -5 13 -5 36 1 56 11 40 -4 93 -23 81
-6 -4 -8 -3 -5 3 4 6 0 16 -8 23 -8 7 -15 28 -15 47 0 28 -3 33 -13 25 -10 -8
-16 -3 -27 21 -7 18 -23 46 -35 62 -12 17 -25 37 -29 45 -14 31 -32 56 -61 85
-38 37 -190 165 -273 229 -35 26 -75 59 -89 72 -14 13 -30 24 -34 24 -11 0
-53 41 -66 63 -5 11 -8 80 -5 168 l4 149 -51 0 -51 0 0 -57 c0 -32 -3 -96 -7
-141 -7 -95 7 -89 -121 -59 -74 17 -239 22 -302 8 -114 -25 -200 -50 -224 -66
-35 -23 -27 -29 20 -16 128 34 244 36 244 5 0 -20 -39 -53 -62 -54 -9 0 -20
-4 -23 -10 -3 -5 -31 -10 -61 -10 -41 0 -54 -4 -54 -15 0 -8 7 -15 16 -15 8 0
12 -4 9 -10 -3 -5 -17 -10 -29 -10 -13 0 -29 -7 -36 -15 -18 -21 -64 -19 -85
5 -26 28 -116 19 -165 -18 -19 -14 -36 -30 -38 -34 -2 -4 -9 -8 -15 -8 -7 0
-22 -15 -34 -33 -39 -57 -82 -94 -107 -94 -13 0 -39 -11 -56 -23 -97 -69 17
64 137 161 40 31 88 62 108 69 20 7 48 23 62 36 14 13 32 24 40 24 7 0 21 4
31 9 9 5 26 13 37 17 17 6 18 8 3 11 -9 2 -45 -9 -80 -25 -168 -79 -229 -110
-238 -122 -7 -9 -97 -68 -131 -85 -16 -9 -29 -21 -29 -28 0 -12 -37 -41 -52
-42 -4 0 -21 -15 -37 -32 -17 -18 -37 -33 -45 -33 -9 0 -16 -7 -16 -15 0 -9
-7 -18 -15 -22 -9 -3 -24 -22 -35 -42 -10 -20 -27 -44 -37 -53 -32 -30 -56
-67 -81 -128 -5 -14 -19 -47 -31 -75 l-22 -50 6 55 c2 30 9 98 13 150 7 72 6
101 -4 121 l-13 26 -153 -2 c-143 -1 -155 1 -198 23 -25 13 -48 29 -52 36 -13
19 -9 123 5 134 15 12 78 22 137 22 44 -1 46 1 59 36 8 22 11 52 6 80 -5 35
-3 43 8 38 7 -2 20 2 27 11 9 11 32 15 85 15 75 0 102 12 85 40 -12 19 -11
143 1 151 11 7 14 35 11 112 l-2 47 -299 0 -299 0 -8 -87 c-4 -49 -8 -176 -9
-283 -1 -107 -8 -391 -14 -630 -7 -239 -12 -454 -12 -477 0 -24 -4 -43 -8 -43
-4 0 -7 -73 -7 -162 1 -221 -4 -367 -15 -373 -4 -3 -6 -12 -3 -19 3 -7 -11
-47 -30 -88 -23 -47 -36 -90 -36 -114 0 -22 -5 -45 -12 -52 -9 -9 -9 -15 0
-24 7 -7 12 -23 12 -37 0 -19 3 -22 9 -12 6 9 11 10 15 2 4 -6 4 -11 0 -11 -3
0 -1 -7 6 -15 7 -8 9 -15 4 -15 -5 0 -9 -11 -9 -25 0 -20 5 -25 24 -25 24 0
24 0 5 -19 -10 -10 -22 -14 -25 -9 -3 5 -13 8 -20 6 -8 -2 -33 15 -56 38 -22
22 -53 48 -67 57 -34 23 -35 57 -1 57 18 0 26 -7 31 -25 5 -21 9 -23 25 -14
24 12 25 45 2 53 -14 6 -15 9 -4 15 8 6 -3 9 -30 9 -34 1 -48 -4 -61 -21 -15
-20 -18 -20 -44 -7 -36 19 -94 74 -94 89 0 6 7 11 15 11 8 0 15 -7 15 -15 0
-8 4 -15 9 -15 18 0 5 55 -16 73 -13 10 -23 25 -23 33 0 8 -7 14 -15 14 -8 0
-15 7 -15 15 0 8 3 15 6 15 3 0 12 -7 20 -15 9 -8 24 -15 35 -15 33 0 21 33
-21 60 -22 13 -40 28 -40 32 0 4 -9 8 -20 8 -11 0 -20 5 -20 10 0 6 9 10 20
10 11 0 20 5 20 10 0 6 -13 10 -30 10 -16 0 -30 -4 -30 -10 0 -5 -4 -10 -10
-10 -5 0 -10 9 -10 20 0 17 -7 20 -40 20 l-40 0 0 40 c0 33 -3 40 -20 40 -11
0 -20 6 -20 13 -1 6 -3 36 -6 65 -3 38 -1 51 7 46 8 -5 9 -2 2 11 -6 10 -8 37
-5 61 3 29 1 44 -7 44 -6 0 -11 14 -11 30 0 23 4 30 20 30 11 0 20 5 20 10 0
6 -13 10 -30 10 -16 0 -30 5 -30 10 0 6 5 10 10 10 18 0 11 35 -10 48 -12 7
-20 8 -20 2 0 -5 5 -10 10 -10 6 0 10 -7 10 -15 0 -18 -16 -20 -23 -2 -3 6 -2
34 1 61 7 70 -17 305 -36 346 l-16 35 -6 -35 c-13 -82 -17 15 -14 354 3 354 8
452 24 426 6 -10 16 -5 40 18 17 18 37 32 45 32 7 0 19 10 27 22 12 18 23 21
66 19 47 -2 52 0 52 19 0 12 -15 36 -33 53 -30 29 -33 36 -29 80 2 26 8 47 13
47 5 0 9 18 9 40 l0 40 -260 0 -260 0 0 -800z m480 665 c0 -8 -4 -15 -10 -15
-5 0 -10 7 -10 15 0 8 5 15 10 15 6 0 10 -7 10 -15z m995 -14 c17 -8 61 -15
99 -15 54 -1 71 -5 80 -18 8 -13 8 -23 -2 -38 -6 -11 -12 -31 -12 -44 0 -27
-16 -36 -66 -36 -20 0 -34 5 -34 13 -1 6 -27 43 -60 82 -32 38 -56 73 -53 78
3 5 8 5 12 0 3 -4 20 -15 36 -22z m-23 -168 c10 -20 16 -39 14 -41 -6 -6 -56
52 -56 65 0 26 26 11 42 -24z m1188 -323 c0 -5 -8 -10 -17 -10 -15 0 -16 2 -3
10 19 12 20 12 20 0z m50 -19 c13 -26 13 -31 -5 -31 -8 0 -15 -6 -15 -13 0 -9
-16 -13 -55 -13 -30 1 -55 4 -55 8 0 4 -14 8 -31 10 -27 3 -29 5 -17 21 12 17
18 17 56 5 23 -7 42 -16 42 -20 0 -21 29 -4 40 22 14 35 25 38 40 11z m-203
-19 c-10 -10 -17 -24 -17 -30 0 -7 -7 -12 -15 -12 -21 0 -19 10 7 37 25 27 49
32 25 5z m-27 -61 c0 -3 -15 -6 -33 -5 -44 1 -49 3 -43 12 6 9 76 3 76 -7z
m1557 -338 c-11 -10 -26 8 -20 23 5 15 7 14 15 -1 6 -9 7 -19 5 -22z m-1354
-88 c-2 -7 3 -18 12 -25 14 -12 14 -15 -1 -31 -20 -22 -44 -25 -44 -5 0 9 -7
12 -19 9 -22 -6 -35 21 -22 46 11 19 82 25 74 6z m82 -44 c-19 -20 -25 -12
-13 19 7 20 11 22 18 10 6 -10 4 -20 -5 -29z m-1085 -212 c0 -15 -30 -23 -42
-11 -6 6 -7 15 -4 20 7 12 46 4 46 -9z m2470 -189 c3 -4 15 -11 28 -14 29 -10
72 -49 72 -67 0 -11 2 -11 10 1 16 25 20 7 27 -109 5 -101 5 -111 -10 -105
-14 5 -17 -1 -17 -35 0 -34 -3 -41 -20 -41 -16 0 -20 7 -20 30 0 23 -4 30 -20
30 -16 0 -20 -7 -20 -30 0 -21 5 -30 16 -30 34 0 41 -23 41 -140 0 -79 3 -115
11 -118 7 -2 12 -24 12 -53 0 -35 4 -49 14 -49 8 0 16 -6 19 -14 9 -24 -8
-169 -21 -174 -7 -2 -12 -10 -12 -18 0 -8 -9 -14 -20 -14 -17 0 -20 -7 -20
-40 0 -29 -4 -40 -15 -40 -14 0 -14 -4 0 -31 9 -17 14 -37 11 -45 -3 -8 1 -14
9 -14 8 0 15 -4 15 -10 0 -5 -4 -10 -9 -10 -6 0 -13 5 -16 10 -3 6 -15 10 -26
10 -25 0 -25 -30 1 -37 26 -7 26 -26 -1 -38 -27 -12 -26 -29 1 -33 26 -4 26
-18 0 -32 -21 -11 -21 -11 2 -35 13 -14 28 -25 34 -25 24 0 92 -109 77 -123
-3 -3 -33 22 -67 56 -69 70 -153 137 -172 137 -6 0 -14 7 -18 15 -3 8 -14 15
-23 15 -10 0 -27 6 -38 14 -27 18 -158 55 -272 75 -57 11 -93 26 -93 41 0 5
12 18 27 27 15 10 43 35 63 57 37 41 190 273 190 288 0 5 24 51 54 103 30 51
57 104 61 117 4 12 11 28 15 33 16 23 49 132 46 150 -3 11 -5 27 -5 36 -1 9
-12 21 -26 27 l-25 12 30 41 c16 23 30 48 30 56 0 8 4 11 10 8 6 -4 9 14 7 49
-1 30 -5 52 -9 49 -10 -5 -11 41 -2 50 8 8 57 -3 64 -13z m-1681 -106 c-6 -7
-9 -20 -7 -30 2 -9 -2 -19 -8 -21 -14 -5 -15 25 -2 60 8 20 13 25 19 16 4 -8
3 -19 -2 -25z m2107 -21 c-11 -11 -19 6 -11 24 8 17 8 17 12 0 3 -10 2 -21 -1
-24z m-4132 -14 c-8 -14 -21 -11 -21 5 0 8 6 12 14 9 7 -3 10 -9 7 -14z m4351
11 c3 -5 1 -10 -4 -10 -6 0 -11 5 -11 10 0 6 2 10 4 10 3 0 8 -4 11 -10z
m-2922 -46 c-14 -14 -28 -22 -31 -19 -4 3 0 10 7 14 7 5 10 14 7 20 -5 7 2 11
18 11 l25 0 -26 -26z m63 17 c5 -5 20 -11 34 -13 17 -2 26 -10 28 -25 3 -21
-1 -23 -42 -23 -48 0 -65 12 -46 35 6 8 9 19 5 25 -8 12 7 13 21 1z m2664 -12
c0 -5 -4 -9 -10 -9 -5 0 -10 7 -10 16 0 8 5 12 10 9 6 -3 10 -10 10 -16z m292
-3 c8 -14 6 -16 -19 -10 -15 4 -35 13 -43 20 -13 12 -10 14 19 11 18 -2 38
-12 43 -21z m-2424 -61 c3 -56 -4 -71 -33 -77 -13 -2 -20 3 -23 17 -2 11 -14
28 -25 38 -16 14 -18 17 -5 13 13 -4 20 4 30 30 9 26 17 34 33 32 17 -3 20
-11 23 -53z m-388 20 c0 -12 -5 -13 -17 -7 -10 5 -25 12 -33 15 -8 3 0 6 18 6
22 1 32 -4 32 -14z m144 -90 c39 -17 48 -35 16 -35 -29 0 -70 21 -70 37 0 17
9 16 54 -2z m186 -21 c0 -15 -38 -39 -48 -30 -3 3 0 17 8 30 13 25 40 25 40 0z
m-1990 0 c0 -8 -6 -11 -15 -8 -8 4 -15 9 -15 13 0 4 7 8 15 8 8 0 15 -6 15
-13z m20 -32 c0 -20 -28 -44 -46 -39 -17 4 -16 5 4 6 15 1 22 7 22 21 0 11 5
20 10 20 6 0 10 -4 10 -8z m4517 -94 c-2 -13 -4 -3 -4 22 0 25 2 35 4 23 2
-13 2 -33 0 -45z m-687 -33 c0 -8 -2 -15 -4 -15 -2 0 -6 7 -10 15 -3 8 -1 15
4 15 6 0 10 -7 10 -15z m-3700 -60 c7 -9 10 -18 7 -21 -10 -11 -37 5 -37 21 0
19 14 19 30 0z m55 -45 c3 -5 2 -10 -4 -10 -5 0 -13 5 -16 10 -3 6 -2 10 4 10
5 0 13 -4 16 -10z m35 -14 c0 -8 6 -17 13 -19 7 -3 5 -6 -5 -6 -10 -1 -18 1
-18 3 0 2 -3 11 -6 20 -3 9 -1 16 5 16 6 0 11 -6 11 -14z m3760 -91 c0 -8 -4
-15 -10 -15 -5 0 -7 7 -4 15 4 8 8 15 10 15 2 0 4 -7 4 -15z m-2197 -51 c12
-23 15 -24 26 -10 18 21 34 20 55 -3 18 -20 14 -67 -5 -56 -5 4 -9 2 -9 -4 0
-5 -27 -9 -62 -8 -56 2 -64 5 -75 27 -7 14 -13 21 -13 16 0 -6 -5 -5 -11 1
-12 12 -3 53 12 53 5 0 9 -10 10 -22 0 -22 1 -22 22 5 26 34 33 34 50 1z m199
-58 c11 -16 10 -23 -8 -40 -16 -17 -33 -20 -58 -10 -20 8 -20 24 0 52 16 24
50 22 66 -2z m2544 -2 c-3 -9 -6 -21 -6 -27 0 -16 -20 14 -20 31 0 6 7 12 16
12 11 0 14 -5 10 -16z m-2462 0 c20 -8 21 -38 1 -54 -8 -7 -12 -17 -8 -23 4
-7 0 -8 -11 -4 -10 4 -20 7 -22 7 -8 0 -4 42 6 61 12 21 12 21 34 13z m96 -22
c0 -10 -6 -27 -14 -38 -13 -17 -15 -17 -21 -2 -7 18 10 58 25 58 6 0 10 -8 10
-18z m-1380 -61 c0 -22 -37 -38 -52 -23 -7 7 -3 12 11 17 12 3 21 11 21 16 0
5 5 9 10 9 6 0 10 -9 10 -19z m1026 -20 c23 -18 24 -20 7 -29 -22 -11 -70 1
-103 28 l-25 20 48 0 c33 0 57 -6 73 -19z m-1063 -27 c31 -9 18 -24 -20 -23
-62 1 -116 13 -121 28 -4 11 8 12 59 6 35 -3 72 -9 82 -11z m417 -34 c13 -8
13 -9 0 -14 -55 -17 -259 -46 -325 -45 l-80 0 50 15 c28 7 108 21 179 29 71 8
132 17 134 20 8 8 25 6 42 -5z m90 -185 c0 -7 14 -26 31 -44 17 -18 28 -39 26
-49 -3 -9 -11 -39 -18 -66 -7 -28 -19 -51 -28 -53 -26 -7 -72 -91 -65 -119 6
-24 -1 -29 -30 -18 -9 3 -13 10 -10 15 3 6 7 60 9 122 2 62 9 126 16 142 6 17
11 45 10 64 -1 19 4 38 11 42 14 9 48 -17 48 -36z m3274 -88 c0 -9 -1 -37 -2
-62 -3 -72 -22 -53 -21 20 1 45 5 65 13 62 6 -2 11 -11 10 -20z m-574 -127 c7
-13 7 -26 2 -37 -5 -9 -7 -23 -5 -33 6 -22 -22 -44 -44 -35 -16 6 -15 8 5 16
17 6 22 14 17 28 -3 10 -7 33 -10 50 -4 36 18 43 35 11z m-2869 -81 c3 -34 1
-44 -11 -44 -11 0 -16 13 -17 50 -4 98 21 93 28 -6z m3439 0 c0 -11 -4 -17
-10 -14 -5 3 -10 13 -10 21 0 8 5 14 10 14 6 0 10 -9 10 -21z m-520 -109 c0
-13 -5 -18 -15 -14 -8 4 -15 12 -15 20 0 8 7 14 15 14 8 0 15 -9 15 -20z m-41
-29 c16 -16 33 -26 37 -23 4 4 4 2 1 -4 -8 -14 37 -64 57 -64 17 0 29 -30 21
-52 -4 -9 1 -22 9 -31 8 -8 18 -25 21 -38 3 -13 19 -39 35 -58 16 -18 27 -37
24 -42 -3 -5 2 -9 10 -9 9 0 16 -7 16 -15 0 -18 31 -86 47 -103 25 -27 28 -81
3 -56 -18 18 -80 126 -80 139 0 8 -4 15 -8 17 -10 4 -92 128 -92 139 0 4 -9
13 -20 19 -12 6 -20 21 -20 35 0 13 -12 38 -27 54 -47 51 -73 88 -73 105 0 22
5 20 39 -13z m181 -76 c0 -16 -6 -25 -15 -25 -15 0 -21 31 -8 43 13 14 23 6
23 -18z m380 -56 c0 -11 -4 -17 -10 -14 -5 3 -10 13 -10 21 0 8 5 14 10 14 6
0 10 -9 10 -21z m-380 -29 c0 -5 -5 -10 -11 -10 -5 0 -7 5 -4 10 3 6 8 10 11
10 2 0 4 -4 4 -10z m-2130 -46 c0 -2 -7 -4 -15 -4 -8 0 -15 4 -15 10 0 5 7 7
15 4 8 -4 15 -8 15 -10z m-75 -4 c-3 -5 -16 -10 -28 -9 -21 0 -21 1 -2 9 28
12 37 12 30 0z m2242 -22 c-3 -8 -6 -5 -6 6 -1 11 2 17 5 13 3 -3 4 -12 1 -19z
m-2087 -8 c0 -5 -2 -10 -4 -10 -3 0 -8 5 -11 10 -3 6 -1 10 4 10 6 0 11 -4 11
-10z m-1308 -105 c3 -3 0 -22 -7 -43 -10 -29 -18 -37 -37 -37 -31 0 -38 40 -9
48 12 3 21 12 21 21 0 15 21 22 32 11z m3497 -30 c2 -10 12 -26 22 -34 21 -18
43 -81 28 -81 -5 0 -9 6 -9 14 0 7 -18 34 -41 59 -22 26 -37 51 -34 57 10 16
29 7 34 -15z m81 5 c0 -13 -5 -18 -15 -14 -16 7 -19 17 -8 27 12 13 23 7 23
-13z m-3649 -70 c29 -16 24 -31 -36 -94 -30 -31 -69 -78 -87 -104 -17 -26 -56
-80 -86 -120 -32 -44 -51 -79 -48 -88 3 -9 -5 -25 -20 -39 -25 -23 -137 -207
-149 -244 -9 -28 -44 -56 -55 -45 -7 7 0 30 20 70 16 32 30 64 30 70 0 6 8 18
18 28 11 9 24 33 30 54 15 49 70 132 88 132 8 0 14 10 14 24 0 13 9 34 19 48
11 13 23 36 26 50 4 14 21 40 39 59 18 19 43 49 54 68 20 33 111 141 119 141
2 0 13 -5 24 -10z m3806 -102 c-2 -13 -4 -3 -4 22 0 25 2 35 4 23 2 -13 2 -33
0 -45z m-2492 42 c-3 -5 -12 -10 -18 -10 -7 0 -6 4 3 10 19 12 23 12 15 0z
m2278 -56 c3 -15 0 -24 -8 -24 -13 0 -25 21 -25 46 0 22 28 5 33 -22z m75 -22
c6 -18 -15 -14 -22 4 -4 10 -1 14 6 12 6 -2 14 -10 16 -16z m-33 -47 c0 -10
-6 -20 -12 -22 -8 -3 -13 5 -13 22 0 17 5 25 13 23 6 -3 12 -13 12 -23z m172
-87 c-1 -72 -6 -111 -12 -108 -5 3 -9 16 -7 30 2 14 3 62 3 108 0 45 4 82 9
82 5 0 8 -51 7 -112z m-137 36 c0 -8 -5 -12 -10 -9 -6 4 -8 11 -5 16 9 14 15
11 15 -7z"/>
<path d="M4102 3335 c-6 -11 -6 -27 -2 -39 12 -29 25 -97 22 -118 -1 -10 7
-22 18 -28 18 -10 20 -7 20 29 0 26 -5 41 -16 45 -12 5 -14 15 -9 48 4 30 2
49 -8 62 -14 19 -14 19 -25 1z"/>
<path d="M4085 3039 c-5 -33 -3 -55 4 -62 15 -15 17 -10 25 56 5 45 3 57 -8
57 -9 0 -16 -17 -21 -51z"/>
<path d="M3970 2721 c0 -6 4 -13 10 -16 6 -3 7 1 4 9 -7 18 -14 21 -14 7z"/>
<path d="M3925 2651 c-6 -21 3 -51 16 -51 11 0 23 46 14 59 -10 17 -23 13 -30
-8z"/>
<path d="M3973 2574 c-19 -20 -17 -104 2 -104 8 0 15 -9 15 -20 0 -11 -6 -20
-14 -20 -7 0 -16 9 -19 20 -7 26 -37 26 -37 1 0 -11 5 -21 12 -23 12 -4 19
-58 7 -58 -4 0 -5 -9 -2 -20 3 -11 13 -20 23 -20 10 0 20 9 23 20 3 11 1 20
-3 20 -4 0 -6 9 -3 20 3 11 9 20 14 20 5 0 9 18 9 40 0 22 -4 40 -10 40 -6 0
-6 9 0 24 5 13 6 35 2 49 -6 21 -9 23 -19 11z"/>
<path d="M3887 2556 c-10 -27 -8 -66 3 -66 16 0 21 22 12 55 -7 24 -9 26 -15
11z"/>
<path d="M3990 2221 c0 -9 -9 -11 -32 -6 -31 6 -32 6 -13 -8 46 -33 96 -24 61
11 -11 12 -16 13 -16 3z"/>
<path d="M4090 2210 c0 -5 9 -14 20 -20 22 -12 27 -1 8 18 -14 14 -28 16 -28
2z"/>
<path d="M4066 2174 c-8 -22 1 -31 16 -16 9 9 9 15 1 23 -7 7 -12 5 -17 -7z"/>
<path d="M4105 2120 c3 -5 15 -10 26 -10 11 0 17 5 14 10 -3 6 -15 10 -26 10
-11 0 -17 -4 -14 -10z"/>
<path d="M640 4699 c0 -6 -6 -9 -14 -6 -21 8 -39 -19 -32 -48 6 -23 46 -56 46
-36 0 5 11 12 25 15 27 7 30 20 15 60 -9 26 -40 37 -40 15z"/>
<path d="M885 4509 c-10 -15 3 -25 16 -12 7 7 7 13 1 17 -6 3 -14 1 -17 -5z"/>
<path d="M4511 4240 c-11 -100 -12 -180 -2 -180 19 0 22 22 13 110 -5 47 -10
78 -11 70z"/>
<path d="M333 4130 c0 -25 2 -35 4 -22 2 12 2 32 0 45 -2 12 -4 2 -4 -23z"/>
<path d="M4952 4110 c0 -14 2 -19 5 -12 2 6 2 18 0 25 -3 6 -5 1 -5 -13z"/>
<path d="M4946 3378 c-3 -84 -2 -169 3 -188 6 -25 9 19 10 153 1 103 -1 187
-3 187 -2 0 -6 -69 -10 -152z"/>
<path d="M780 2660 c-13 -8 -12 -10 3 -10 9 0 17 5 17 10 0 12 -1 12 -20 0z"/>
<path d="M1220 2208 c-32 -12 -70 -50 -70 -70 0 -9 -4 -20 -10 -23 -11 -7 -12
-143 -2 -218 10 -70 28 -58 24 16 l-3 62 25 -27 c50 -56 74 -20 40 60 l-15 37
38 33 c21 19 55 42 75 53 20 10 39 23 43 28 13 22 -107 63 -145 49z"/>
<path d="M1431 2174 c0 -11 3 -14 6 -6 3 7 2 16 -1 19 -3 4 -6 -2 -5 -13z"/>
<path d="M1615 1383 c4 -10 10 -37 12 -60 3 -24 10 -43 15 -43 6 0 7 17 3 43
-9 61 -15 77 -27 77 -6 0 -7 -7 -3 -17z"/>
</g>
</svg>
